<?xml version="1.0" encoding="UTF-8" standalone="no"?>
<!DOCTYPE svg PUBLIC "-//W3C//DTD SVG 1.1//EN" "http://www.w3.org/Graphics/SVG/1.1/DTD/svg11.dtd">
<svg width="100%" height="100%" viewBox="0 0 72 72" version="1.1" xmlns="http://www.w3.org/2000/svg" xmlns:xlink="http://www.w3.org/1999/xlink" xml:space="preserve" xmlns:serif="http://www.serif.com/" style="fill-rule:evenodd;clip-rule:evenodd;stroke-linejoin:round;stroke-miterlimit:2;">
    <path d="M20.492,16.22L20.492,9.711C20.492,8.369 21.581,7.28 22.923,7.28L49.077,7.28C50.419,7.28 51.508,8.369 51.508,9.711L51.508,16.22L61.76,16.22C65.756,16.22 69,19.464 69,23.46L69,57.479C69,61.476 65.756,64.72 61.76,64.72L10.24,64.72C6.244,64.72 3,61.476 3,57.479L3,23.46C3,19.464 6.244,16.22 10.24,16.22L20.492,16.22ZM35.918,19.089C47.498,19.089 56.9,28.506 56.9,40.105C56.9,51.704 47.498,61.12 35.918,61.12C24.337,61.12 14.935,51.704 14.935,40.105C14.935,28.506 24.337,19.089 35.918,19.089ZM35.918,25.146C44.161,25.146 50.853,31.849 50.853,40.105C50.853,48.361 44.161,55.064 35.918,55.064C27.675,55.064 20.982,48.361 20.982,40.105C20.982,31.849 27.675,25.146 35.918,25.146Z"/>
</svg>
